<svg width="102" height="90" viewBox="0 0 102 90" fill="none" xmlns="http://www.w3.org/2000/svg">
<g filter="url(#filter0_d_65:1565)">
<path d="M93 39C93 58.4936 74.6134 75 51 75C27.3866 75 9 58.4936 9 39C9 19.5064 27.3866 3 51 3C74.6134 3 93 19.5064 93 39Z" stroke="#F68C64" stroke-width="6" shape-rendering="crispEdges"/>
</g>
<path d="M27.668 42.2153H20.2456V39.1436H27.668V42.2153ZM39.8232 48.8994H36.0132V34.2129L31.4648 35.6235V32.5254L39.4146 29.6777H39.8232V48.8994ZM58.9922 40.9629C58.9922 43.6172 58.4429 45.6475 57.3442 47.0537C56.2456 48.46 54.6372 49.1631 52.519 49.1631C50.4272 49.1631 48.8276 48.4731 47.7202 47.0933C46.6128 45.7134 46.0459 43.7358 46.0195 41.1606V37.6274C46.0195 34.9468 46.5732 32.9121 47.6807 31.5234C48.7969 30.1348 50.4009 29.4404 52.4927 29.4404C54.5845 29.4404 56.1841 30.1304 57.2915 31.5103C58.3989 32.8813 58.9658 34.8545 58.9922 37.4297V40.9629ZM55.1821 37.0869C55.1821 35.4961 54.9624 34.3403 54.5229 33.6196C54.0923 32.8901 53.4155 32.5254 52.4927 32.5254C51.5962 32.5254 50.9326 32.8726 50.502 33.5669C50.0801 34.2524 49.856 35.3291 49.8296 36.7969V41.4639C49.8296 43.0283 50.0405 44.1929 50.4624 44.9575C50.8931 45.7134 51.5786 46.0913 52.519 46.0913C53.4507 46.0913 54.123 45.7266 54.5361 44.9971C54.9492 44.2676 55.1646 43.1514 55.1821 41.6484V37.0869ZM61.5234 33.3955C61.5234 32.2178 61.9058 31.2642 62.6704 30.5347C63.4351 29.7964 64.437 29.4272 65.6763 29.4272C66.9331 29.4272 67.9438 29.792 68.7085 30.5215C69.4731 31.2422 69.8555 32.2222 69.8555 33.4614V34.4106C69.8555 35.5972 69.4731 36.5508 68.7085 37.2715C67.9438 37.9922 66.9419 38.3525 65.7026 38.3525C64.4546 38.3525 63.4438 37.9922 62.6704 37.2715C61.9058 36.542 61.5234 35.562 61.5234 34.3315V33.3955ZM64.0547 34.4106C64.0547 34.938 64.2041 35.3643 64.5029 35.6895C64.8105 36.0059 65.2104 36.1641 65.7026 36.1641C66.1948 36.1641 66.5859 36.0015 66.876 35.6763C67.166 35.3511 67.311 34.916 67.311 34.3711V33.3955C67.311 32.8682 67.166 32.4419 66.876 32.1167C66.5859 31.7915 66.186 31.6289 65.6763 31.6289C65.1929 31.6289 64.8018 31.7915 64.5029 32.1167C64.2041 32.4331 64.0547 32.877 64.0547 33.4482V34.4106ZM70.6992 44.1929C70.6992 43.0063 71.0859 42.0527 71.8594 41.332C72.6328 40.6025 73.6348 40.2378 74.8652 40.2378C76.1133 40.2378 77.1196 40.5981 77.8843 41.3188C78.6577 42.0308 79.0444 43.0151 79.0444 44.272V45.2212C79.0444 46.3989 78.6665 47.3525 77.9106 48.082C77.1548 48.8027 76.1484 49.1631 74.8916 49.1631C73.626 49.1631 72.6108 48.7983 71.8462 48.0688C71.0815 47.3394 70.6992 46.3726 70.6992 45.1685V44.1929ZM73.2305 45.2212C73.2305 45.7046 73.3887 46.1177 73.7051 46.4604C74.0215 46.8032 74.417 46.9746 74.8916 46.9746C75.9639 46.9746 76.5 46.3813 76.5 45.1948V44.1929C76.5 43.6655 76.3506 43.2437 76.0518 42.9272C75.7529 42.6021 75.3574 42.4395 74.8652 42.4395C74.373 42.4395 73.9775 42.6021 73.6787 42.9272C73.3799 43.2437 73.2305 43.6787 73.2305 44.2324V45.2212ZM66.4541 47.4624L64.5952 46.4604L73.9688 31.4575L75.8276 32.4595L66.4541 47.4624Z" fill="#F68C64"/>
<defs>
<filter id="filter0_d_65:1565" x="0" y="0" width="102" height="90" filterUnits="userSpaceOnUse" color-interpolation-filters="sRGB">
<feFlood flood-opacity="0" result="BackgroundImageFix"/>
<feColorMatrix in="SourceAlpha" type="matrix" values="0 0 0 0 0 0 0 0 0 0 0 0 0 0 0 0 0 0 127 0" result="hardAlpha"/>
<feOffset dy="6"/>
<feGaussianBlur stdDeviation="3"/>
<feComposite in2="hardAlpha" operator="out"/>
<feColorMatrix type="matrix" values="0 0 0 0 0 0 0 0 0 0 0 0 0 0 0 0 0 0 0.25 0"/>
<feBlend mode="normal" in2="BackgroundImageFix" result="effect1_dropShadow_65:1565"/>
<feBlend mode="normal" in="SourceGraphic" in2="effect1_dropShadow_65:1565" result="shape"/>
</filter>
</defs>
</svg>
